<svg xmlns="http://www.w3.org/2000/svg" viewBox="0 0 16 16" class="design-iconfont">
  <style type="text/css">path {fill: inherit;}</style>
  <path d="M6.51927273,5.26763636 C6.51927273,4.96639014 6.76348104,4.72218181 7.06472727,4.72218181 L11.3665455,4.72218181 C11.6677917,4.72218181 11.912,4.96639014 11.912,5.26763636 C11.912,5.56888258 11.6677917,5.81309091 11.3665455,5.81309091 L7.06472727,5.81309091 C6.76348104,5.81309091 6.51927273,5.56888258 6.51927273,5.26763636 Z M7.06472727,7.57309091 L11.3665455,7.57309091 C11.6677917,7.57309091 11.912,7.32888259 11.912,7.02763636 C11.912,6.72639013 11.6677917,6.48218181 11.3665455,6.48218181 L7.06472727,6.48218181 C6.76348104,6.48218181 6.51927272,6.72639013 6.51927272,7.02763636 C6.51927272,7.32888259 6.76348104,7.57309091 7.06472727,7.57309091 L7.06472727,7.57309091 Z M15.2952727,11.096 L15.2952727,14.2247273 C15.2952727,14.8705455 14.7694545,15.3956364 14.1243636,15.3956364 L1.92145455,15.3956364 C1.27563636,15.3956364 0.750545453,14.8698182 0.750545453,14.2247273 L0.750545453,11.096 C0.750545453,10.696 0.952727266,10.3425455 1.25890909,10.1316364 L1.25890909,3.89818181 C1.26011129,2.9061743 2.06399249,2.1022931 3.056,2.10109091 L3.75127273,2.10109091 C3.99903078,1.37766114 4.67823269,0.890890034 5.44290909,0.888727266 L12.9912727,0.888727266 C13.9833979,0.890329977 14.7871624,1.69441974 14.7883636,2.68654545 L14.7883636,10.1309091 C15.0938182,10.3432727 15.2952727,10.696 15.2952727,11.096 Z M4.73527273,2.68654545 L4.73527273,9.92363636 L6.00145455,9.92363636 C6.2812599,9.92368837 6.5156464,10.1354531 6.544,10.4138182 C6.57309091,10.6996364 7.14981819,11.0967273 8.02254545,11.0967273 C8.89527272,11.0967273 9.472,10.6989091 9.50109091,10.4138182 C9.52944451,10.1354531 9.76383101,9.92368837 10.0436364,9.92363636 L13.6952727,9.92363636 L13.6952727,2.68654545 C13.6948728,2.29657993 13.3790558,1.98043772 12.9890909,1.97963636 L5.44145455,1.97963636 C5.05165541,1.98083617 4.7360713,2.29674529 4.73527273,2.68654545 Z M2.34909091,3.89818181 L2.34909091,9.92363636 L3.64363636,9.92363636 L3.64363636,3.19272727 L3.05454545,3.19272727 C2.66526559,3.19352743 2.34989107,3.50890195 2.34909091,3.89818181 Z M14.204367,11.096 C14.2045577,11.074657 14.1962149,11.0541213 14.1811909,11.0389607 C14.1661669,11.0238002 14.1457076,11.0152727 14.1243636,11.0152727 L10.4392727,11.0152727 C10.0821818,11.7090909 9.14036364,12.1883636 8.02327273,12.1883636 C6.90618183,12.1883636 5.96436364,11.7090909 5.60581819,11.0152727 L1.92145455,11.0152727 C1.90011062,11.0152727 1.87965131,11.0238002 1.86462732,11.0389607 C1.84960332,11.0541213 1.84126051,11.074657 1.84145124,11.096 L1.84145124,14.2247273 C1.84145124,14.2698182 1.87636364,14.3047273 1.92145455,14.3047273 L14.1243636,14.3047273 C14.1685464,14.3047273 14.204367,14.26891 14.204367,14.2247273 L14.204367,11.096 Z" fill="#999" fill-rule="nonzero"/>
</svg>
