<svg t="1628749188840" class="icon" viewBox="0 0 1024 1024" version="1.1" xmlns="http://www.w3.org/2000/svg" p-id="977" width="200" height="200"><path d="M192 384h640a42.666667 42.666667 0 0 1 42.666667 42.666667v362.666666a42.666667 42.666667 0 0 1-42.666667 42.666667H192v106.666667a21.333333 21.333333 0 0 0 21.333333 21.333333h725.333334a21.333333 21.333333 0 0 0 21.333333-21.333333V308.821333L949.909333 298.666667h-126.528A98.048 98.048 0 0 1 725.333333 200.618667V72.661333L716.714667 64H213.333333a21.333333 21.333333 0 0 0-21.333333 21.333333v298.666667zM128 832H42.666667a42.666667 42.666667 0 0 1-42.666667-42.666667V426.666667a42.666667 42.666667 0 0 1 42.666667-42.666667h85.333333V85.333333a85.333333 85.333333 0 0 1 85.333333-85.333333h530.026667L1024 282.453333V938.666667a85.333333 85.333333 0 0 1-85.333333 85.333333H213.333333a85.333333 85.333333 0 0 1-85.333333-85.333333v-106.666667zM64 472.490667V746.666667h37.226667v-121.344h93.866666V746.666667h37.248V472.490667H195.093333v114.432h-93.866666v-114.432H64z m195.370667 0v38.4h52.544V746.666667h37.248V510.890667h52.522666v-38.4h-142.293333z m169.386666 0V746.666667h37.226667v-188.928h1.28L534.058667 746.666667h32.128l66.837333-188.928h1.28V746.666667h37.226667V472.490667h-43.605334l-77.013333 215.04h-1.28l-77.312-215.04h-43.605333z m287.36 0V746.666667H832v-38.4h-78.976V472.490667h-36.906667z" fill="#409eff" p-id="978"></path></svg>