<?xml version="1.0" standalone="no"?><!DOCTYPE svg PUBLIC "-//W3C//DTD SVG 1.1//EN" "http://www.w3.org/Graphics/SVG/1.1/DTD/svg11.dtd"><svg t="1649310115509" class="icon" viewBox="0 0 1024 1024" version="1.1" xmlns="http://www.w3.org/2000/svg" p-id="7560" xmlns:xlink="http://www.w3.org/1999/xlink" width="200" height="200"><defs><style type="text/css">@font-face { font-family: feedback-iconfont; src: url("//at.alicdn.com/t/font_1031158_u69w8yhxdu.woff2?t=1630033759944") format("woff2"), url("//at.alicdn.com/t/font_1031158_u69w8yhxdu.woff?t=1630033759944") format("woff"), url("//at.alicdn.com/t/font_1031158_u69w8yhxdu.ttf?t=1630033759944") format("truetype"); }
</style></defs><path d="M902.935273 742.074182v118.551273a126.091636 126.091636 0 0 1-125.952 125.905454H196.608a126.045091 126.045091 0 0 1-125.905455-125.905454V181.620364a126.091636 126.091636 0 0 1 125.905455-125.998546h580.421818A126.138182 126.138182 0 0 1 902.981818 181.620364v85.317818a34.909091 34.909091 0 0 1-69.818182 0V181.620364c0-30.999273-25.181091-56.180364-56.133818-56.180364H196.608c-30.952727 0-56.087273 25.227636-56.087273 56.180364V860.625455c0 30.906182 25.181091 56.087273 56.087273 56.087272h580.421818c30.952727 0 56.133818-25.181091 56.133818-56.087272v-118.551273a34.909091 34.909091 0 0 1 69.771637 0z m53.294545-220.997818a34.769455 34.769455 0 0 0-10.24-24.669091l-175.709091-175.662546a34.909091 34.909091 0 1 0-49.384727 49.384728l116.130909 116.084363H483.141818a34.909091 34.909091 0 0 0 0 69.818182h353.931637l-116.13091 116.130909a34.909091 34.909091 0 0 0 49.338182 49.384727l175.709091-175.709091a35.141818 35.141818 0 0 0 10.24-24.762181z" p-id="7561"></path></svg>