<svg xmlns="http://www.w3.org/2000/svg" viewBox="0 0 21 16" class="design-iconfont">
  <path d="M1.07815002,1.98973396 L19.92185,1.98973396 C20.5182094,1.98973396 21,1.54411646 21,0.994866981 C21,0.445876578 20.5184828,0 19.92185,0 L1.07815002,0 C0.482884331,0 0,0.445617504 0,0.994866981 C0,1.54411646 0.482884331,1.98973396 1.07815002,1.98973396 Z M19.9215765,6.96406885 L1.07815002,6.96406885 C0.481517171,6.96406885 0,7.40968635 0,7.95893583 C0,8.5081853 0.481517171,8.95380281 1.07815002,8.95380281 L19.92185,8.95380281 C20.5182094,8.95380281 21,8.5081853 21,7.95893583 C20.9997266,7.40968635 20.5152016,6.96406885 19.9215765,6.96406885 L19.9215765,6.96406885 Z M19.9215765,14.010266 L1.07815002,14.010266 C0.48315778,14.010266 1.77635684e-15,14.4558835 1.77635684e-15,15.005133 C1.77635684e-15,15.5543825 0.482884331,16 1.07815002,16 L19.92185,16 C20.5182094,16 21,15.5543825 21,15.005133 C20.9997266,14.4561426 20.5182094,14.010266 19.9215765,14.010266 Z" fill="#FFF" fill-rule="nonzero"/>
</svg>
