<svg xmlns="http://www.w3.org/2000/svg" viewBox="0 0 14 14" class="design-iconfont">
  <style type="text/css">path {fill: inherit;}</style>
  <path  id="setting-center" d="M8.50052034,8.06251212 L8.50052034,1.50000881 C8.50052034,1.22388302 8.27429136,1.00002469 7.99816556,1.00002469 C7.72203977,1.00002469 7.49581078,1.22388302 7.49581077,1.50000881 L7.49581077,8.06347169 C6.63785652,8.28614469 5.9987935,9.06868927 5.9987935,9.99996472 C5.9987935,10.9326513 6.63661475,11.7161554 7.50021344,11.9374738 C7.49744881,11.9582278 7.49597841,11.9791338 7.49581077,12.0000706 L7.49581077,14.4999912 C7.49581077,14.776117 7.72203975,14.9999753 7.99816556,14.9999753 C8.27429138,14.9999753 8.50052034,14.776117 8.50052034,14.4999912 L8.50052034,12.0000706 C8.50012452,11.9794614 8.49846571,11.9588959 8.49555325,11.9384898 C9.36101459,11.7183568 10.001771,10.9337802 10.001771,10.0000776 C10.0019403,9.06739103 9.36411902,8.28394334 8.50052034,8.06251212 Z M8.7071067,10.7070432 C8.36976142,11.0443987 7.8410882,11.0964769 7.4444017,10.8314291 C7.04771519,10.5663812 6.89349779,10.0580265 7.07606246,9.61725362 C7.25862713,9.17648078 7.72712723,8.9260508 8.1950475,9.01911629 C8.66296776,9.11218179 9.00000046,9.5228228 9.00000046,9.99990828 C9.00074837,10.2652979 8.89527981,10.519955 8.7071067,10.7070996 L8.7071067,10.7070432 Z M3.49497822,3.06255798 C3.49779758,3.04182618 3.49932452,3.02093906 3.4995502,3.00001764 L3.4995502,1.50000881 C3.4995502,1.22412459 3.27590185,1.00047624 3.00001763,1.00047624 C2.72413341,1.00047624 2.50048506,1.22412459 2.50048506,1.50000881 L2.50048506,3.00001764 C2.50009594,3.0212037 2.50103854,3.04239327 2.50330728,3.06346109 C1.63970859,3.28472298 1.00058914,4.06817067 1.00058914,5.00097014 C1.00058914,5.93376961 1.6398215,6.71687863 2.50342017,6.93842273 C2.50121128,6.9588533 2.50024995,6.97939952 2.50054152,6.99994708 L2.50054152,14.4999912 C2.50054151,14.678457 2.59575188,14.8433662 2.7503078,14.9325991 C2.90486371,15.021832 3.09528446,15.021832 3.24984038,14.9325991 C3.40439629,14.8433662 3.49960666,14.678457 3.49960666,14.4999912 L3.49960666,7.00000353 C3.49937978,6.97970862 3.4979284,6.9594459 3.49526044,6.93932584 C4.36066534,6.71919284 5.00074436,5.93461627 5.00074436,5.00097014 C5.00074436,4.06732402 4.360496,3.28257809 3.49497822,3.06255798 Z M3.70709611,5.70810506 C3.36975082,6.04546053 2.8410776,6.09753877 2.4443911,5.83249088 C2.04770461,5.567443 1.89348721,5.05908829 2.07605189,4.61831545 C2.25861657,4.17754261 2.72711667,3.92711264 3.19503694,4.02017814 C3.6629572,4.11324364 3.99998973,4.52388466 3.99998973,5.00097014 C4.0007227,5.26634024 3.89525529,5.52097421 3.70709611,5.70810506 L3.70709611,5.70810506 Z M14.9999753,5.00097014 C14.9999753,4.06698534 14.3585981,3.28257809 13.4929109,3.06255798 C13.4951049,3.04178717 13.4960097,3.02090037 13.4956203,3.00001764 L13.4956203,1.50000881 C13.4956203,1.22412459 13.2719719,1.00047624 12.9960877,1.00047624 C12.7202035,1.00047624 12.4965551,1.22412459 12.4965551,1.50000881 L12.4965551,3.00001764 C12.4967807,3.02124295 12.4983454,3.04243288 12.50124,3.06346109 C11.6376413,3.28472298 10.999425,4.06817067 10.999425,5.00097014 C10.999425,5.93376961 11.6372462,6.71716086 12.5008449,6.93847917 C12.4980849,6.95919588 12.4966146,6.98006404 12.4964422,7.00096308 L12.4964422,14.4999912 C12.4964422,14.7758754 12.7200906,14.9995238 12.9959748,14.9995238 C13.271859,14.9995238 13.4955074,14.7758754 13.4955074,14.4999912 L13.4955074,7.00096308 C13.4958941,6.98040246 13.495027,6.95983738 13.4929109,6.93938228 C14.3586545,6.71930573 14.9999753,5.93489848 14.9999753,5.00097014 L14.9999753,5.00097014 Z M13.7070608,5.70804861 C13.3697007,6.04534932 12.8410537,6.09737081 12.4444171,5.83229902 C12.0477805,5.56722723 11.8936222,5.0588877 12.0762185,4.61815852 C12.2588149,4.17742933 12.7273107,3.92705863 13.1951947,4.02016211 C13.6630786,4.1132656 14.0000396,4.52391287 14.0000106,5.00097014 C14.0007138,5.26632885 13.8952268,5.52094085 13.7070608,5.70804861 L13.7070608,5.70804861 Z" fill="none" transform="translate(-1 -1)" fill-rule="nonzero"/>
</svg>
