<svg t="1628749491693" class="icon" viewBox="0 0 1024 1024" version="1.1" xmlns="http://www.w3.org/2000/svg" p-id="1153" width="200" height="200"><path d="M981.333333 276.053333V981.333333a42.666667 42.666667 0 0 1-42.666666 42.666667H85.333333a42.666667 42.666667 0 0 1-42.666666-42.666667V42.666667a42.666667 42.666667 0 0 1 42.666666-42.666667h619.946667z" fill="#4C98FC" p-id="1154"></path><path d="M705.28 233.386667V0L981.333333 276.053333H747.946667a42.666667 42.666667 0 0 1-42.666667-42.666666z" fill="#A5D1FD" p-id="1155"></path><path d="M281.813333 821.333333m0-26.666666l0-330.666667q0-26.666667 26.666667-26.666667l0 0q26.666667 0 26.666667 26.666667l0 330.666667q0 26.666667-26.666667 26.666666l0 0q-26.666667 0-26.666667-26.666666Z" fill="#FFFFFF" p-id="1156"></path><path d="M270.714615 794.58437m18.85618-18.856181l203.646753-203.646753q18.856181-18.856181 37.712362 0l0 0q18.856181 18.856181 0 37.712362l-203.646753 203.646753q-18.856181 18.856181-37.712362 0l0 0q-18.856181-18.856181 0-37.712362Z" fill="#FFFFFF" p-id="1157"></path><path d="M511.989199 553.286667m18.856181 18.856181l203.646753 203.646753q18.856181 18.856181 0 37.712362l0 0q-18.856181 18.856181-37.712362 0l-203.646753-203.646753q-18.856181-18.856181 0-37.712362l0 0q18.856181-18.856181 37.712362 0Z" fill="#FFFFFF" p-id="1158"></path><path d="M688.853333 821.333333m0-26.666666l0-330.666667q0-26.666667 26.666667-26.666667l0 0q26.666667 0 26.666667 26.666667l0 330.666667q0 26.666667-26.666667 26.666666l0 0q-26.666667 0-26.666667-26.666666Z" fill="#FFFFFF" p-id="1159"></path></svg>